<?xml version="1.0" standalone="no"?>
<!DOCTYPE svg PUBLIC "-//W3C//DTD SVG 20010904//EN"
 "http://www.w3.org/TR/2001/REC-SVG-20010904/DTD/svg10.dtd">
<svg version="1.0" xmlns="http://www.w3.org/2000/svg"
 width="512.000000pt" height="512.000000pt" viewBox="0 0 512.000000 512.000000"
 preserveAspectRatio="xMidYMid meet">
<metadata>
Created by potrace 1.14, written by Peter Selinger 2001-2017
</metadata>
<g transform="translate(0.000000,512.000000) scale(0.100000,-0.100000)"
fill="#000000" stroke="none">
<path d="M4303 4807 l-71 -72 209 -439 c115 -241 209 -440 209 -443 0 -3 -192
93 -426 211 -234 119 -431 216 -438 216 -6 0 -42 -31 -79 -68 l-68 -68 565
-280 565 -279 47 -105 c79 -175 78 -208 -11 -288 l-55 -48 60 -59 60 -60 46
24 c25 13 58 40 73 60 54 69 61 92 61 208 l0 108 -323 700 c-178 385 -330 712
-338 727 l-15 28 -71 -73z"/>
<path d="M3419 3912 c-110 -37 -218 -136 -272 -250 -30 -63 -32 -73 -32 -184
l0 -118 -65 65 -66 65 -62 -63 -62 -62 420 -420 420 -420 67 67 67 68 -265
267 c-228 230 -270 277 -297 333 -74 151 -58 277 47 379 86 83 192 102 280 49
20 -12 172 -157 339 -322 l302 -300 65 64 65 65 -337 338 c-260 260 -350 344
-390 363 -69 34 -151 40 -224 16z"/>
<path d="M2220 3395 l-64 -65 84 -85 85 -85 62 62 c35 34 63 67 63 73 0 10
-151 165 -161 165 -2 0 -34 -29 -69 -65z"/>
<path d="M2550 3065 l-65 -65 420 -420 420 -420 67 67 68 68 -417 417 c-230
230 -420 418 -423 418 -3 0 -35 -29 -70 -65z"/>
<path d="M2170 2657 c-62 -17 -113 -50 -182 -115 -109 -103 -152 -203 -146
-337 l3 -75 -220 220 -220 220 -68 -68 -67 -67 585 -585 585 -585 67 67 68 68
-271 272 c-290 292 -311 320 -335 439 -40 202 166 405 339 334 25 -11 142
-121 352 -331 l315 -314 68 68 67 68 -342 340 c-255 254 -355 347 -391 363
-58 28 -146 35 -207 18z"/>
<path d="M889 2008 c-97 -34 -172 -83 -271 -177 -265 -251 -311 -535 -120
-752 97 -110 220 -160 341 -139 89 15 116 28 390 187 249 144 336 182 414 183
130 0 225 -100 235 -248 4 -69 3 -77 -33 -150 -51 -103 -198 -253 -295 -300
-151 -74 -284 -61 -413 41 l-39 30 -64 -64 c-35 -35 -64 -69 -64 -76 0 -19
107 -100 175 -133 235 -112 511 -21 746 247 173 198 224 379 159 568 -41 118
-133 224 -238 273 -81 38 -210 43 -302 12 -36 -12 -177 -86 -315 -165 -322
-184 -389 -208 -480 -166 -87 39 -140 136 -133 244 6 93 44 165 142 263 165
164 324 196 470 94 l54 -38 68 69 68 69 -38 39 c-21 21 -70 54 -110 72 -64 30
-82 34 -176 36 -89 3 -115 0 -171 -19z"/>
</g>
</svg>
